<svg version="1.1" id="Layer_1" xmlns="http://www.w3.org/2000/svg" xmlns:xlink="http://www.w3.org/1999/xlink" x="0px" y="0px"
	 viewBox="0 0 64 64" style="enable-background:new 0 0 64 64;" xml:space="preserve">
<style type="text/css">
	.p0{opacity:0.2;fill:#E74A99;enable-background:new;}
	.p1{fill:#E74A99;animation: rcc2 10s infinite;}
	.p2{opacity:0.1;fill:#E74A99;enable-background:new;}
	.p3{fill:#FF482E;animation: rcc3 10s infinite;}
	.p4{fill:#9E56D6;animation: rcc4 10s infinite;}
	.p5{fill:#3591AC;animation: rcc5 10s infinite;}
	.p6{fill:#2CBA66;animation: rcc6 10s infinite;}
	.p7{fill:#FF8201;animation: rcc7 10s infinite;}
	.p8{fill:#FFC825;animation: rcc8 10s infinite;}
	@keyframes rcc2 {
		0% {opacity:0}
	}
	@keyframes rcc3 {0% {fill: #9E56D6}
		25% {fill: #3591AC}
		50% {fill: #2CBA66}
		75% {fill: #FF8201}
		100% {fill: #FFC825}
	}
	@keyframes rcc4 {0% {fill: #3591AC}
		25% {fill: #2CBA66}
		50% {fill: #FF8201}
		75% {fill: #FFC825}
		100% {fill: #FF482E}
	}
	@keyframes rcc5 {0% {fill: #2CBA66}
		25% {fill: #FF8201}
		50% {fill: #FFC825}
		75% {fill: #FF482E}
		100% {fill: #9E56D6}
	}
	@keyframes rcc6 {0% {fill: #FF8201}
		25% {fill: #FFC825}
		50% {fill: #FF482E}
		75% {fill: #9E56D6}
		100% {fill: #3591AC}
	}
	@keyframes rcc7 {0% {fill: #FFC825}
		25% {fill: #FF482E}
		50% {fill: #9E56D6}
		75% {fill: #3591AC}
		100% {fill: #2CBA66}
	}
	@keyframes rcc8 {0% {fill: #FF482E}
		25% {fill: #9E56D6}
		50% {fill: #3591AC}
		75% {fill: #2CBA66}
		100% {fill: #FF8201}
	}
	</style>
<g>
	<g>
		<path class="p0" d="M18.5,15.6c-0.2,0.1-0.3,0.3-0.5,0.4c-8.9,7.5-10.9,20.5-4.5,29.9c6.6,9.7,20,12.3,30.2,5.9 c10-6.2,13.8-19,8.8-29.2l-12.2-2c-1.7-0.3-2.1,0-3.4,1.1l-5.7,4.8c-6,4.9,1.3,13.5,7.1,8.5l5-4.2c0.7,4.4-1.3,9-5.4,11.6 c-5.2,3.2-11.8,1.9-15.1-3s-2.2-11.5,2.6-15.3c0.2-0.1,0.4-0.3,0.6-0.5l5.2-4.4c2.5-2,2.9-5.6,0.9-8s-5.6-2.6-8-0.5L18.5,15.6z"/>
		<path class="p1" d="M18,15c-0.2,0.1-0.3,0.3-0.5,0.4C8.6,22.9,6.6,35.9,13,45.3c6.6,9.7,20,12.3,30.2,5.9 c10-6.2,13.8-19,8.8-29.2l-12.2-2c-1.7-0.3-2.1,0-3.4,1.1l-5.7,4.8c-6,4.9,1.3,13.5,7.1,8.5l5-4.2c0.7,4.4-1.3,9-5.4,11.6 c-5.2,3.2-11.8,1.9-15.1-3S20.2,27.2,25,23.5c0.2-0.1,0.4-0.3,0.6-0.5l5.2-4.4c2.5-2,2.9-5.6,0.9-8s-5.6-2.6-8-0.5L18,15z"/>
		<path class="p2" d="M18,15c-0.2,0.1-0.3,0.3-0.5,0.4C8.6,22.9,6.6,35.9,13,45.3c0.5,0.7,1,1.4,1.5,2c-0.4-0.4-0.7-0.9-1-1.4 C7.1,36.5,9.1,23.5,18,16c0.1-0.1,0.3-0.3,0.5-0.4l5.7-4.8c2.3-2,5.7-1.9,7.7,0.2c-0.1-0.1-0.2-0.2-0.2-0.3c-2-2.4-5.6-2.6-8-0.5 L18,15z M30.8,25.8c-3.1,2.6-2.6,6.1-0.6,8.2c-1.6-2.1-1.7-5.3,1.1-7.6l5.7-4.8c1.3-1.1,1.6-1.4,3.4-1.1l11.9,2 c-0.1-0.2-0.2-0.4-0.3-0.6l-12.2-2c-1.7-0.3-2.1,0-3.4,1.1L30.8,25.8z M23.3,39.9c3.5,4.4,9.7,5.5,14.7,2.4 c4.1-2.6,6.1-7.2,5.4-11.6L43,31.1c0.3,4.1-1.7,8.3-5.5,10.6C32.7,44.7,26.8,43.8,23.3,39.9z"/>
	</g>
	<g>
		<path class="p3" d="M52.8,20l6.9-4c-0.1-0.1-0.1-0.2-0.2-0.3C53.8,6,43.3,0,32,0v8C40.9,8,48.6,12.8,52.8,20z"/>
		<path class="p4" d="M59.7,16l-6.9,4c2,3.5,3.2,7.6,3.2,12s-1.2,8.5-3.2,12l6.9,4c0.1-0.1,0.1-0.2,0.2-0.3 C65.4,37.8,65.4,25.8,59.7,16z"/>
		<path class="p5" d="M52.8,44C48.6,51.2,40.9,56,32,56v8c11.3,0,21.8-6,27.5-15.7c0.1-0.1,0.1-0.2,0.2-0.3L52.8,44z"/>
		<path class="p6" d="M4.5,48.3C10.2,58,20.7,64,32,64v-8c-8.9,0-16.6-4.8-20.8-12l-6.9,4C4.4,48.1,4.4,48.2,4.5,48.3z"/>
		<path class="p7" d="M32,8V0C20.7,0,10.2,6,4.5,15.7c-0.1,0.1-0.1,0.2-0.2,0.3l6.9,4C15.4,12.8,23.1,8,32,8z"/>
		<path class="p8" d="M11.2,20l-6.9-4c-0.1,0.1-0.1,0.2-0.2,0.3C-1.4,26.2-1.4,38.2,4.3,48l6.9-4C9.2,40.5,8,36.4,8,32 S9.2,23.5,11.2,20z"/>
	</g>
</g>
<g>
	<path d="M27.7,36.3c0.2,0.4,0.2,0.9,0,1.1c-0.5,0.2-0.9,0.2-1.2,0c-0.2-0.4-0.2-0.9,0-1.1S27.4,35.9,27.7,36.3z"/>
	<path d="M25.7,35.3c0.9-0.8,2.3-0.8,3,0.2c0.8,0.9,0.8,2.3-0.2,3c-0.9,0.8-2.3,0.8-3-0.2C24.7,37.3,24.7,36,25.7,35.3z M24.7,34.1 c-1.5,1.3-1.5,3.6-0.2,4.9c1.3,1.5,3.6,1.5,4.9,0.2s1.5-3.6,0.2-4.9S26.1,32.8,24.7,34.1L24.7,34.1z"/>
	<path d="M35.3,29.7c0.2,0.4,0.2,0.9,0,1.1c-0.5,0.2-0.9,0.2-1.2,0c-0.2-0.4-0.2-0.9,0-1.1C34.3,29.5,35,29.3,35.3,29.7z"/>
	<path d="M33.3,28.6c0.9-0.8,2.3-0.8,3,0.2s0.8,2.3-0.2,3c-0.9,0.8-2.3,0.8-3-0.2C32.3,30.7,32.3,29.4,33.3,28.6z M32.3,27.5 c-1.5,1.3-1.5,3.6-0.2,4.9c1.3,1.5,3.6,1.5,4.9,0.2s1.5-3.6,0.2-4.9S33.6,26.2,32.3,27.5L32.3,27.5z"/>
</g>
</svg>
